HIERARCHY
ROOT Hips
{
    OFFSET 0.000000 0.000000 0.000000
    CHANNELS 6 Xposition Yposition Zposition Zrotation Xrotation Yrotation
    JOINT Spine
    {
        OFFSET -0.000000 8.359812 0.000000
        CHANNELS 3 Zrotation Xrotation Yrotation
        JOINT Spine1
        {
            OFFSET -0.000000 28.141317 0.000000
            CHANNELS 3 Zrotation Xrotation Yrotation
            JOINT Neck
            {
                OFFSET -0.000000 28.025745 2.547795
                CHANNELS 3 Zrotation Xrotation Yrotation
                JOINT Head
                {
                    OFFSET -0.000000 14.272848 -2.038978
                    CHANNELS 3 Zrotation Xrotation Yrotation
                    End Site
                    {
                        OFFSET -0.000000 25.487228 0.000000
                    }
                }
            }
            JOINT LeftShoulder
            {
                OFFSET 4.059574 26.120710 -0.180480
                CHANNELS 3 Zrotation Xrotation Yrotation
                JOINT LeftArm
                {
                    OFFSET 11.584161 0.000000 0.000000
                    CHANNELS 3 Zrotation Xrotation Yrotation
                    JOINT LeftForeArm
                    {
                        OFFSET 30.766815 0.000000 0.000000
                        CHANNELS 3 Zrotation Xrotation Yrotation
                        JOINT LeftHand
                        {
                            OFFSET 29.436810 0.000000 0.000000
                            CHANNELS 3 Zrotation Xrotation Yrotation
                            End Site
                            {
                                OFFSET 15.292337 0.000000 0.000000
                            }
                        }
                    }
                }
            }
            JOINT RightShoulder
            {
                OFFSET -4.095355 26.120710 -0.180480
                CHANNELS 3 Zrotation Xrotation Yrotation
                JOINT RightArm
                {
                    OFFSET -11.584161 0.000000 0.000000
                    CHANNELS 3 Zrotation Xrotation Yrotation
                    JOINT RightForeArm
                    {
                        OFFSET -30.766815 0.000000 0.000000
                        CHANNELS 3 Zrotation Xrotation Yrotation
                        JOINT RightHand
                        {
                            OFFSET -29.436810 0.000000 0.000000
                            CHANNELS 3 Zrotation Xrotation Yrotation
                            End Site
                            {
                                OFFSET -15.292337 0.000000 0.000000
                            }
                        }
                    }
                }
            }
        }
    }
    JOINT LeftUpLeg
    {
        OFFSET 10.194892 0.000000 0.000000
        CHANNELS 3 Zrotation Xrotation Yrotation
        JOINT LeftLeg
        {
            OFFSET -0.000000 -32.520012 0.000000
            CHANNELS 3 Zrotation Xrotation Yrotation
            JOINT LeftFoot
            {
                OFFSET -0.000000 -49.106510 0.000000
                CHANNELS 3 Zrotation Xrotation Yrotation
                JOINT LeftToeBase
                {
                    OFFSET -0.000000 -6.626679 15.292337
                    CHANNELS 3 Zrotation Xrotation Yrotation
                    End Site
                    {
                        OFFSET -0.000000 0.000000 4.077957
                    }
                }
            }
        }
    }
    JOINT RightUpLeg
    {
        OFFSET -10.194892 0.000000 0.000000
        CHANNELS 3 Zrotation Xrotation Yrotation
        JOINT RightLeg
        {
            OFFSET -0.000000 -32.520012 0.000000
            CHANNELS 3 Zrotation Xrotation Yrotation
            JOINT RightFoot
            {
                OFFSET -0.000000 -49.106510 0.000000
                CHANNELS 3 Zrotation Xrotation Yrotation
                JOINT RightToeBase
                {
                    OFFSET -0.000000 -6.626679 15.292337
                    CHANNELS 3 Zrotation Xrotation Yrotation
                    End Site
                    {
                        OFFSET -0.000000 0.000000 4.077957
                    }
                }
            }
        }
    }
}
MOTION
Frames:    5
Frame Time:    0.008333
-39.041275    87.714493    49.064983    -2.903623    -2.485303    80.823090    2.833199    -7.810401    -0.539322    -1.274123    4.977942    -0.677467    3.335058    24.886511    15.303721    -9.613588    -11.067780    13.963402    15.790720    -2.363297    1.474528    -10.934267    -6.678391    9.154049    1.233285    -5.450413    3.473511    17.075941    -3.184030    15.295764    -17.232710    -1.892638    1.632736    25.682838    -5.021372    14.638782    -1.313037    -1.061006    -4.151228    -11.460157    0.004117    -11.055492    5.379538    -0.321486    -2.952287    -4.685546    -0.416274    -7.651381    6.605020    -3.336164    37.458393    0.000000    0.000000    0.000000    0.387980    -9.824371    3.059565    2.837186    15.834817    2.324508    -2.609522    -7.004316    -5.813954    0.000000    0.000000    0.000000    
-39.104385    87.726913    49.016159    -2.933894    -2.541151    80.663696    2.882296    -7.774286    -0.560341    -1.312982    4.997203    -0.699024    3.278789    24.934387    15.397304    -9.617289    -10.930693    14.068425    15.840292    -2.369135    1.508923    -10.905369    -6.598130    9.325476    1.225533    -5.174859    3.456441    17.112986    -2.860077    15.570871    -17.175312    -1.957761    1.625971    25.545458    -4.988473    14.679071    -1.182534    -1.242378    -4.280961    -11.979000    -0.106492    -11.212534    5.407969    -0.307553    -2.985602    -4.670667    -0.523959    -7.383757    6.615780    -3.258176    37.387638    0.000000    0.000000    0.000000    0.512116    -10.120648    3.063091    2.868316    16.216555    2.056534    -2.748026    -7.290282    -5.851476    0.000000    0.000000    0.000000    
-39.151711    87.737297    48.976463    -2.930251    -2.604626    80.500450    2.919082    -7.681402    -0.596297    -1.294957    4.928966    -0.736691    3.137395    25.228354    15.530355    -9.686710    -11.045977    14.179219    15.760386    -2.369066    1.583451    -10.768356    -6.700051    9.430944    1.299856    -4.720633    3.539763    16.752178    -2.471528    15.481994    -17.173037    -1.935475    1.700838    25.477961    -5.083365    14.692252    -1.147619    -1.259405    -4.379203    -12.190669    -0.084321    -11.377927    5.441022    -0.225619    -2.976187    -4.648733    -0.654655    -7.168100    6.585640    -3.207977    37.305801    0.000000    0.000000    0.000000    0.651108    -10.336822    3.102166    2.887632    16.615829    1.825349    -2.919207    -7.687295    -6.001191    0.000000    0.000000    0.000000    
-39.208042    87.759712    48.943634    -2.996132    -2.652583    80.334587    2.881138    -7.673072    -0.581004    -1.167311    4.898939    -0.724324    3.102012    25.283092    15.573484    -9.768141    -10.774456    14.226562    15.678711    -2.369168    1.645420    -10.742543    -6.427167    9.473735    1.247258    -4.506103    3.457886    16.955055    -2.181519    15.773650    -17.278915    -1.936568    1.667590    25.449659    -4.977767    14.668890    -1.110531    -1.428627    -4.504395    -12.405734    -0.212045    -11.557169    5.486315    -0.220004    -2.981614    -4.643004    -0.789859    -6.938766    6.544763    -3.107659    37.234348    0.000000    0.000000    0.000000    0.818359    -10.617695    3.080192    2.908569    16.973690    1.624066    -2.864866    -8.052192    -6.278422    0.000000    0.000000    0.000000    
-39.255310    87.781837    48.920174    -3.040365    -2.698182    80.190765    2.880278    -7.656574    -0.579833    -1.138391    4.880396    -0.724094    3.116360    25.301231    15.634317    -9.810119    -10.464522    14.308232    15.725417    -2.352660    1.715317    -10.792702    -6.291018    9.500664    1.224018    -4.290510    3.471476    16.980190    -1.965993    15.742807    -17.349157    -1.957392    1.616071    25.547907    -5.188529    14.652420    -1.117151    -1.392202    -4.554839    -12.279274    -0.179346    -11.648479    5.526216    -0.185682    -2.969802    -4.625977    -0.935299    -6.700195    6.455243    -3.009941    37.126717    0.000000    0.000000    0.000000    0.991328    -10.824392    3.026814    2.932638    17.276772    1.390512    -2.742065    -8.489257    -6.562796    0.000000    0.000000    0.000000    
